<?xml version="1.0" encoding="UTF-8"?>
<!DOCTYPE svg PUBLIC "-//W3C//DTD SVG 1.1//EN" "http://www.w3.org/Graphics/SVG/1.1/DTD/svg11.dtd">
<svg xmlns="http://www.w3.org/2000/svg" version="1.1" width="500px" height="500px" style="shape-rendering:geometricPrecision; text-rendering:geometricPrecision; image-rendering:optimizeQuality; fill-rule:evenodd; clip-rule:evenodd" xmlns:xlink="http://www.w3.org/1999/xlink">
<g><path style="opacity:1" fill="#36d3ff" d="M 141.5,175.5 C 142.498,149.005 142.831,122.339 142.5,95.5C 143.261,92.1461 144.928,89.3128 147.5,87C 152.883,83.3859 158.55,82.3859 164.5,84C 201.833,105 239.167,126 276.5,147C 231.914,161.917 187.247,176.751 142.5,191.5C 141.119,191 140.453,190 140.5,188.5C 141.375,184.213 141.708,179.879 141.5,175.5 Z"/></g>
<g><path style="opacity:0.842" fill="#65ddff" d="M 142.5,95.5 C 142.831,122.339 142.498,149.005 141.5,175.5C 141.586,174.504 141.252,173.671 140.5,173C 141.162,147.069 141.829,121.236 142.5,95.5 Z"/></g>
<g><path style="opacity:0.035" fill="#f0fbff" d="M 333.5,179.5 C 332.833,179.5 332.5,179.833 332.5,180.5C 331.957,180.44 331.624,180.107 331.5,179.5C 332.257,178.227 332.923,178.227 333.5,179.5 Z"/></g>
<g><path style="opacity:1" fill="#39d4ff" d="M 333.5,179.5 C 367.112,198.309 400.779,217.143 434.5,236C 446.512,245.318 447.179,255.318 436.5,266C 406.112,283.191 375.779,300.357 345.5,317.5C 344.833,316.833 344.167,316.167 343.5,315.5C 339.532,270.524 335.866,225.524 332.5,180.5C 332.5,179.833 332.833,179.5 333.5,179.5 Z"/></g>
<g><path style="opacity:1" fill="#44d5ff" d="M 140.5,316.5 C 141.167,286.5 141.833,256.5 142.5,226.5C 145.341,228.587 148.341,230.087 151.5,231C 177.625,197.178 211.625,185.178 253.5,195C 294.708,209.878 316.375,239.211 318.5,283C 318.108,300.738 313.441,317.238 304.5,332.5C 306.228,334.548 308.228,336.381 310.5,338C 262.67,365.081 215.004,392.414 167.5,420C 154.319,425.997 145.152,422.164 140,408.5C 139.458,377.83 139.625,347.163 140.5,316.5 Z M 223.5,203.5 C 260.077,204.255 285.911,221.255 301,254.5C 312.403,290.948 303.57,321.448 274.5,346C 241.679,367.177 209.345,366.51 177.5,344C 150.074,319.037 142.241,288.87 154,253.5C 167.633,223.446 190.8,206.779 223.5,203.5 Z"/></g>
<g><path style="opacity:1" fill="#35d3ff" d="M 280.5,264.5 C 280.41,267.152 281.076,269.485 282.5,271.5C 283.341,273.379 283.675,275.379 283.5,277.5C 283.02,282.822 282.687,288.155 282.5,293.5C 276.756,319.409 260.756,334.575 234.5,339C 227.592,339.864 220.925,339.364 214.5,337.5C 212.485,336.076 210.152,335.41 207.5,335.5C 180.691,324.141 168.524,303.808 171,274.5C 177.444,244.559 195.944,228.225 226.5,225.5C 252.987,227.017 270.987,240.017 280.5,264.5 Z"/></g>
<g><path style="opacity:0.386" fill="#b0eeff" d="M 142.5,226.5 C 141.833,256.5 141.167,286.5 140.5,316.5C 140.167,286.159 140.5,255.826 141.5,225.5C 142.107,225.624 142.44,225.957 142.5,226.5 Z"/></g>
<g><path style="opacity:0.741" fill="#99e7ff" d="M 280.5,264.5 C 281.924,266.515 282.59,268.848 282.5,271.5C 281.076,269.485 280.41,267.152 280.5,264.5 Z"/></g>
<g><path style="opacity:0.824" fill="#beefff" d="M 283.5,277.5 C 284.761,282.9 284.428,288.233 282.5,293.5C 282.687,288.155 283.02,282.822 283.5,277.5 Z"/></g>
<g><path style="opacity:0.055" fill="#e5f9ff" d="M 343.5,315.5 C 344.167,316.167 344.833,316.833 345.5,317.5C 345.44,318.043 345.107,318.376 344.5,318.5C 343.614,317.675 343.281,316.675 343.5,315.5 Z"/></g>
<g><path style="opacity:0.965" fill="#9de8ff" d="M 207.5,335.5 C 210.152,335.41 212.485,336.076 214.5,337.5C 211.848,337.59 209.515,336.924 207.5,335.5 Z"/></g>
</svg>
