<?xml version="1.0" standalone="yes"?>
<svg xmlns="http://www.w3.org/2000/svg" width="500" height="500">
<path style="fill:#ffffff; stroke:none;" d="M0 0L0 500L500 500L500 0L0 0z"/>
<path style="fill:#b2b2b2; stroke:none;" d="M191 150L192 151L191 150z"/>
<path style="fill:#33d4ff; stroke:none;" d="M192.153 150.742C189.514 151.94 189.115 154.78 192.153 155.683C197.759 157.349 217.809 158.285 222.663 154.977C226.197 152.568 222.641 150.301 219.981 150.059C212.799 149.404 198.754 147.743 192.153 150.742z"/>
<path style="fill:#b2b2b2; stroke:none;" d="M224 154L225 155L224 154M196 163L196 164L213 164L196 163M135 164L135 165L149 165L135 164z"/>
<path style="fill:#33d4ff; stroke:none;" d="M149 164.424C146.465 164.757 132.433 163.766 133.176 167.83C133.867 171.614 145.253 170 148 170C163.729 170 179.331 169.726 195 169.039C199.478 168.843 209.744 171.007 213.338 167.992C218.35 163.785 200.57 164 199 164C182.647 164 165.215 162.295 149 164.424z"/>
<path style="fill:#b2b2b2; stroke:none;" d="M190 169L190 170L205 170L190 169M135 170L135 171L142 171L135 170M153.667 177.333L154.333 177.667L153.667 177.333z"/>
<path style="fill:#33d4ff; stroke:none;" d="M171.337 178.023C169.111 179.54 169.739 181.955 172.153 182.682C177.12 184.178 199.783 185.383 203.288 181.416C206.062 178.276 201.125 177.115 198.985 177.019C192.481 176.729 176.796 174.303 171.337 178.023M124.377 179.023C120.784 181.634 125.727 183.739 128.005 183.941C134.208 184.493 151.363 186.17 156.338 181.992C159.558 179.287 153.62 178.091 151.995 178.019C145.701 177.742 129.553 175.261 124.377 179.023z"/>
<path style="fill:#b2b2b2; stroke:none;" d="M169 178L170 179L169 178M204 178L205 179L204 178M147 183L147 184L155 184L147 183M172 190L172 191L188 191L172 190z"/>
<path style="fill:#33d4ff; stroke:none;" d="M187.999 190.444C183.968 190.801 180.056 191 176 191L169 191C167.148 191.001 154.202 192.826 161.323 196.244C166.705 198.827 179.8 196.013 186 196C188.087 195.996 191.499 196.518 193.199 194.977C196.805 191.708 190.045 190.262 187.999 190.444z"/>
<path style="fill:#b2b2b2; stroke:none;" d="M115 191L115 192L124 192L115 191z"/>
<path style="fill:#33d4ff; stroke:none;" d="M124 191.424C122.288 191.649 110.684 191.518 113.176 195.455C114.557 197.637 118.852 196.996 121 197C128.18 197.015 137.957 198.729 144.851 196.682C148.841 195.498 147.358 191.73 143.941 191.148C137.834 190.108 130.118 190.621 124 191.424z"/>
<path style="fill:#b2b2b2; stroke:none;" d="M166 196L166 197L181 197L166 196M115 197L115 198L118 198L115 197M47 203L47 204L140 204L111 203L47 203M193 203L193 204L208 204L193 203z"/>
<path style="fill:#33d4ff; stroke:none;" d="M47 204L47 297L140 297L140 222C153.379 225.918 173.771 222 188 222C190.364 222 203.286 223.368 201.539 218.259C200.216 214.392 190.111 216 187 216C171.311 216 155.722 217 140 217L140 210C158.346 210 176.73 209.029 195 209C197.599 208.996 211.896 210.616 211.079 206.015C210.445 202.446 204.377 203.932 202 203.985C192.01 204.21 181.992 204 172 204L47 204z"/>
<path style="fill:#b2b2b2; stroke:none;" d="M141 204L141 205L145 205L141 204M186 209L186 210L202 210L186 209z"/>
<path style="fill:#ffffff; stroke:none;" d="M60 214L53 283L71 283L74 245C78.3287 253.215 77.9743 267.664 84.0887 274.397C86.9631 277.561 98.3546 276.985 100.914 273.682C107.202 265.57 105.631 252.618 113 245L114 283L133 283L129 233L126.397 215.028L103 214L93 249L85 214L60 214z"/>
<path style="fill:#b2b2b2; stroke:none;" d="M127 214L128 215L127 214M154 216L154 217L170 217L154 216M85 218L86 219L85 218M59 219L60 220L59 219M202 219L203 220L202 219M148 222L148 223L163 223L148 222M100 225L101 226L100 225M128 226L129 227L128 226M87 227L88 228L87 227M58 229L59 230L58 229M88 231L89 232L88 231M98 232L99 233L98 232M149 233L150 234L149 233z"/>
<path style="fill:#777777; stroke:none;" d="M150.667 233.333L151.333 233.667L150.667 233.333z"/>
<path style="fill:#b2b2b2; stroke:none;" d="M152 233L153 234L152 233z"/>
<path style="fill:#777777; stroke:none;" d="M147 234L148 235L147 234z"/>
<path style="fill:#242424; stroke:none;" d="M148.133 234.747C141.049 237.715 145.777 248.201 152.891 245.392C160.126 242.535 155.313 231.739 148.133 234.747z"/>
<path style="fill:#777777; stroke:none;" d="M154 234L155 235L154 234z"/>
<path style="fill:#b2b2b2; stroke:none;" d="M89 235L90 236L89 235M145 235L146 236L145 235z"/>
<path style="fill:#777777; stroke:none;" d="M155 235L156 236L155 235z"/>
<path style="fill:#b2b2b2; stroke:none;" d="M203 235L203 236L208 236L203 235z"/>
<path style="fill:#777777; stroke:none;" d="M208 235L208 236L212 236L208 235z"/>
<path style="fill:#b2b2b2; stroke:none;" d="M212 235L212 250L213 250L212 235M279 235L279 236L284 236L279 235z"/>
<path style="fill:#777777; stroke:none;" d="M284 235L284 236L288 236L284 235z"/>
<path style="fill:#b2b2b2; stroke:none;" d="M288 235L288 250L289 250L288 235M156 236L157 237L156 236M199 236L199 259L200 259L199 236z"/>
<path style="fill:#242424; stroke:none;" d="M200 236L200 282L212 282C212 278.544 209.97 261.288 215.011 261.203C220.197 261.115 218 278.604 218 282L230 282C230 268.636 233.198 241.048 212 255L212 236L200 236z"/>
<path style="fill:#b2b2b2; stroke:none;" d="M275 236L275 259L276 259L275 236z"/>
<path style="fill:#242424; stroke:none;" d="M276 236L276 282L288 282C288 278.544 285.97 261.288 291.011 261.203C296.197 261.115 294 278.604 294 282L306 282C306 268.636 309.198 241.048 288 255L288 236L276 236z"/>
<path style="fill:#b2b2b2; stroke:none;" d="M144 237L145 238L144 237z"/>
<path style="fill:#777777; stroke:none;" d="M156 237L157 238L156 237z"/>
<path style="fill:#b2b2b2; stroke:none;" d="M129.333 238.667L129.667 239.333L129.333 238.667z"/>
<path style="fill:#777777; stroke:none;" d="M144 238L145 239L144 238z"/>
<path style="fill:#b2b2b2; stroke:none;" d="M255.667 238.333L256.333 238.667L255.667 238.333M57 239L58 240L57 239z"/>
<path style="fill:#242424; stroke:none;" d="M237 239L237 282L250 282L250 269C262.473 268.999 283.143 255.621 267.867 242.419C260.637 236.172 245.891 239 237 239z"/>
<path style="fill:#777777; stroke:none;" d="M262 239L263 240L262 239z"/>
<path style="fill:#b2b2b2; stroke:none;" d="M263 239L264 240L263 239z"/>
<path style="fill:#777777; stroke:none;" d="M265 240L266 241L265 240z"/>
<path style="fill:#b2b2b2; stroke:none;" d="M267 241L268 242L267 241z"/>
<path style="fill:#777777; stroke:none;" d="M144 242L145 243L144 242M156 242L157 243L156 242M268 242L269 243L268 242z"/>
<path style="fill:#b2b2b2; stroke:none;" d="M95 243L96 244L95 243M144 243L145 244L144 243M156 243L157 244L156 243z"/>
<path style="fill:#777777; stroke:none;" d="M269 243L270 244L269 243M145 244L146 245L145 244M155 244L156 245L155 244z"/>
<path style="fill:#b2b2b2; stroke:none;" d="M270 244L271 245L270 244z"/>
<path style="fill:#777777; stroke:none;" d="M146 245L147 246L146 245M154 245L155 246L154 245z"/>
<path style="fill:#b2b2b2; stroke:none;" d="M73 246L74 247L73 246M147 246L148 247L147 246z"/>
<path style="fill:#777777; stroke:none;" d="M148 246L148 247L152 247L148 246z"/>
<path style="fill:#b2b2b2; stroke:none;" d="M152 246L153 247L152 246M271 246L272 247L271 246z"/>
<path style="fill:#777777; stroke:none;" d="M271 247L272 248L271 247M237 248L237 262L238 262L237 248z"/>
<path style="fill:#b2b2b2; stroke:none;" d="M250 248L250 255L251 255L250 248z"/>
<path style="fill:#ffffff; stroke:none;" d="M251 248L250 260C259.451 259.692 260.436 249.536 251 248z"/>
<path style="fill:#b2b2b2; stroke:none;" d="M254 248L255 249L254 248z"/>
<path style="fill:#777777; stroke:none;" d="M255 248L256 249L255 248z"/>
<path style="fill:#b2b2b2; stroke:none;" d="M447 248L448 249L447 248z"/>
<path style="fill:#777777; stroke:none;" d="M448.667 248.333L449.333 248.667L448.667 248.333z"/>
<path style="fill:#33d4ff; stroke:none;" d="M452 248L452 259L466 255C462.398 250.799 457.485 248.562 452 248z"/>
<path style="fill:#b2b2b2; stroke:none;" d="M456 248L457 249L456 248M56 249L57 250L56 249M272 249L272 252L273 252L272 249M360 249L360 250L363 250L360 249M444 249L445 250L444 249z"/>
<path style="fill:#777777; stroke:none;" d="M445 249L446 250L445 249z"/>
<path style="fill:#242424; stroke:none;" d="M422 269C419.136 273.558 416.599 277.486 422 281C402.429 302.233 461.151 296.426 444.566 278.279C439.874 273.144 431.901 276.148 427 271C436.142 271 448.545 269.372 445 257C449.704 255.974 449.947 253.458 450 249C441.952 249.702 429.095 248.307 422.105 252.558C415.797 256.393 415.499 265.5 422 269z"/>
<path style="fill:#b2b2b2; stroke:none;" d="M151 250L151 251L156 251L151 250z"/>
<path style="fill:#777777; stroke:none;" d="M156 250L157 251L156 250z"/>
<path style="fill:#b2b2b2; stroke:none;" d="M169 250L169 251L174 251L169 250z"/>
<path style="fill:#777777; stroke:none;" d="M174 250L175 251L174 250z"/>
<path style="fill:#b2b2b2; stroke:none;" d="M175 250L175 255L176 255L175 250M182 250L183 251L182 250z"/>
<path style="fill:#777777; stroke:none;" d="M183 250L184 251L183 250z"/>
<path style="fill:#242424; stroke:none;" d="M175 255L175 251L164.607 252.028L163.83 260L163 282L176 282C175.627 279.05 172.503 259.237 178.91 261.346C184.987 263.346 181.093 277.481 181 282L194 282C193.381 267.581 196.099 242.432 175 255z"/>
<path style="fill:#777777; stroke:none;" d="M185.667 250.333L186.333 250.667L185.667 250.333z"/>
<path style="fill:#b2b2b2; stroke:none;" d="M187 250L188 251L187 250z"/>
<path style="fill:#777777; stroke:none;" d="M219 250L220 251L219 250M221 250L221 251L224 251L221 250z"/>
<path style="fill:#b2b2b2; stroke:none;" d="M224 250L225 251L224 250M257 250L258 251L257 250z"/>
<path style="fill:#777777; stroke:none;" d="M295 250L296 251L295 250M297 250L297 251L300 251L297 250z"/>
<path style="fill:#b2b2b2; stroke:none;" d="M300 250L301 251L300 250M318 250L318 251L322 251L318 250z"/>
<path style="fill:#777777; stroke:none;" d="M322 250L323 251L322 250z"/>
<path style="fill:#b2b2b2; stroke:none;" d="M323 250L324 251L323 250M336 250L336 251L340 251L336 250z"/>
<path style="fill:#777777; stroke:none;" d="M340 250L341 260L342 260L340 250z"/>
<path style="fill:#b2b2b2; stroke:none;" d="M341 250L342 251L341 250M355 250L356 251L355 250z"/>
<path style="fill:#777777; stroke:none;" d="M356 250L357 251L356 250z"/>
<path style="fill:#242424; stroke:none;" d="M357 250.533C337.227 255.333 345.395 287.637 367 281.427C385.191 276.199 376.646 245.764 357 250.533z"/>
<path style="fill:#777777; stroke:none;" d="M366.667 250.333L367.333 250.667L366.667 250.333z"/>
<path style="fill:#b2b2b2; stroke:none;" d="M368 250L369 251L368 250M387 250L387 251L392 251L387 250z"/>
<path style="fill:#777777; stroke:none;" d="M392 250L393 251L392 250M400 250L401 251L400 250z"/>
<path style="fill:#242424; stroke:none;" d="M393 255L393 251C390.073 251 385.051 250.089 382.603 252.028C378.122 255.577 381 276.319 381 282L393 282C393 278.575 390.986 261.207 396.039 261.207C401.872 261.207 399 278.222 399 282L411 282C411 267.859 414.471 242.103 393 255z"/>
<path style="fill:#777777; stroke:none;" d="M402 250L402 251L405 251L402 250z"/>
<path style="fill:#b2b2b2; stroke:none;" d="M405 250L406 251L405 250M425 250L426 251L425 250z"/>
<path style="fill:#777777; stroke:none;" d="M426.667 250.333L427.333 250.667L426.667 250.333M436 250L437 251L436 250z"/>
<path style="fill:#b2b2b2; stroke:none;" d="M437 250L438 251L437 250M441 250L442 251L441 250z"/>
<path style="fill:#777777; stroke:none;" d="M442 250L443 251L442 250z"/>
<path style="fill:#b2b2b2; stroke:none;" d="M130 251L131 252L130 251z"/>
<path style="fill:#777777; stroke:none;" d="M144 251L144 262L145 262L144 251z"/>
<path style="fill:#242424; stroke:none;" d="M145 251L144 282L157 282L157 251L145 251z"/>
<path style="fill:#777777; stroke:none;" d="M163 251L164 252L163 251z"/>
<path style="fill:#b2b2b2; stroke:none;" d="M180 251L181 252L180 251z"/>
<path style="fill:#777777; stroke:none;" d="M189 251L190 252L189 251M217 251L218 252L217 251M226 251L227 252L226 251M258 251L258 256L259 256L258 251M293 251L294 252L293 251M302 251L303 252L302 251z"/>
<path style="fill:#b2b2b2; stroke:none;" d="M311 251L311 262L312 262L311 251z"/>
<path style="fill:#242424; stroke:none;" d="M312 251C312 259.282 307.888 287.215 323.998 281.143C326.495 280.202 328.739 278.388 331 277C335.286 285.498 342.044 281.205 344 274C338.414 270.379 341 257.096 341 251L330 251C330 257.917 332.932 270.575 324 272L324 251L312 251z"/>
<path style="fill:#b2b2b2; stroke:none;" d="M329 251L330 252L329 251z"/>
<path style="fill:#777777; stroke:none;" d="M353 251L354 252L353 251M369 251L370 252L369 251z"/>
<path style="fill:#b2b2b2; stroke:none;" d="M370 251L371 252L370 251z"/>
<path style="fill:#777777; stroke:none;" d="M381 251L382 252L381 251M398 251L399 252L398 251M407 251L408 252L407 251M423 251L424 252L423 251z"/>
<path style="fill:#b2b2b2; stroke:none;" d="M178 252L179 253L178 252M191 252L192 253L191 252M215 252L216 253L215 252z"/>
<path style="fill:#777777; stroke:none;" d="M272 252L273 253L272 252z"/>
<path style="fill:#b2b2b2; stroke:none;" d="M291 252L292 253L291 252z"/>
<path style="fill:#777777; stroke:none;" d="M329 252L329 271L330 271L329 252z"/>
<path style="fill:#b2b2b2; stroke:none;" d="M351 252L352 253L351 252z"/>
<path style="fill:#777777; stroke:none;" d="M371 252L372 253L371 252z"/>
<path style="fill:#b2b2b2; stroke:none;" d="M396 252L397 253L396 252z"/>
<path style="fill:#777777; stroke:none;" d="M421 252L422 253L421 252z"/>
<path style="fill:#b2b2b2; stroke:none;" d="M77 253L78 254L77 253M177 253L178 254L177 253M192 253L193 254L192 253z"/>
<path style="fill:#777777; stroke:none;" d="M214 253L215 254L214 253z"/>
<path style="fill:#b2b2b2; stroke:none;" d="M272 253L272 256L273 256L272 253z"/>
<path style="fill:#777777; stroke:none;" d="M290 253L291 254L290 253M350 253L351 254L350 253M372 253L373 254L372 253M395 253L396 254L395 253M420 253L421 254L420 253z"/>
<path style="fill:#b2b2b2; stroke:none;" d="M465 253L466 254L465 253z"/>
<path style="fill:#777777; stroke:none;" d="M176 254L177 255L176 254z"/>
<path style="fill:#b2b2b2; stroke:none;" d="M212 254L213 255L212 254M229 254L230 255L229 254M288 254L289 255L288 254M305 254L306 255L305 254z"/>
<path style="fill:#777777; stroke:none;" d="M349 254L350 255L349 254M373 254L374 255L373 254M394 254L395 255L394 254M410 254L411 255L410 254z"/>
<path style="fill:#b2b2b2; stroke:none;" d="M466 254L467 255L466 254M107 255L108 256L107 255M193 255L194 256L193 255M348 255L349 256L348 255M374 255L375 256L374 255z"/>
<path style="fill:#777777; stroke:none;" d="M418 255L419 256L418 255z"/>
<path style="fill:#b2b2b2; stroke:none;" d="M72 256L73 257L72 256z"/>
<path style="fill:#777777; stroke:none;" d="M193 256L193 277L194 277L193 256z"/>
<path style="fill:#b2b2b2; stroke:none;" d="M411.333 256.667L411.667 257.333L411.333 256.667z"/>
<path style="fill:#777777; stroke:none;" d="M448.667 256.333L449.333 256.667L448.667 256.333M163 257L163 276L164 276L163 257z"/>
<path style="fill:#b2b2b2; stroke:none;" d="M230 257L230 265L231 265L230 257M306 257L306 265L307 265L306 257M347 257L348 258L347 257M375 257L376 258L375 257z"/>
<path style="fill:#777777; stroke:none;" d="M417 257L418 258L417 257M430 257L430 258L434 258L430 257M445 257L446 258L445 257z"/>
<path style="fill:#b2b2b2; stroke:none;" d="M106 258L107 259L106 258M113 258L114 259L113 258z"/>
<path style="fill:#777777; stroke:none;" d="M257 258L258 259L257 258M271 258L272 259L271 258M358 259L358 260L363 259L358 259M411 258L411 261L412 261L411 258M428 258L429 259L428 258z"/>
<path style="fill:#ffffff; stroke:none;" d="M429.618 259.042C426.684 261.3 430.73 264.998 433.382 262.958C436.316 260.7 432.27 257.002 429.618 259.042z"/>
<path style="fill:#b2b2b2; stroke:none;" d="M434 258L435 259L434 258z"/>
<path style="fill:#777777; stroke:none;" d="M256 259L257 260L256 259z"/>
<path style="fill:#b2b2b2; stroke:none;" d="M346 259L347 260L346 259z"/>
<path style="fill:#ffffff; stroke:none;" d="M364 274L364 267.995C363.961 249.199 350.492 271.795 364 274z"/>
<path style="fill:#b2b2b2; stroke:none;" d="M363 259L364 260L363 259M474.333 259.667L474.667 260.333L474.333 259.667z"/>
<path style="fill:#33d4ff; stroke:none;" d="M475 259L476 274L488 268L475 259z"/>
<path style="fill:#b2b2b2; stroke:none;" d="M55 260L56 261L55 260M79 260L80 261L79 260z"/>
<path style="fill:#777777; stroke:none;" d="M176.667 260.333L177.333 260.667L176.667 260.333z"/>
<path style="fill:#b2b2b2; stroke:none;" d="M178 260L179 261L178 260z"/>
<path style="fill:#777777; stroke:none;" d="M179 260L180 261L179 260M213 260L214 261L213 260z"/>
<path style="fill:#b2b2b2; stroke:none;" d="M214.667 260.333L215.333 260.667L214.667 260.333z"/>
<path style="fill:#777777; stroke:none;" d="M216 260L217 261L216 260M250 260L250 261L255 261L250 260M270 260L271 261L270 260M289 260L290 261L289 260z"/>
<path style="fill:#b2b2b2; stroke:none;" d="M290.667 260.333L291.333 260.667L290.667 260.333z"/>
<path style="fill:#777777; stroke:none;" d="M292 260L293 261L292 260z"/>
<path style="fill:#b2b2b2; stroke:none;" d="M341 260L341 269L342 269L341 260z"/>
<path style="fill:#777777; stroke:none;" d="M346.333 260.667L346.667 261.333L346.333 260.667z"/>
<path style="fill:#b2b2b2; stroke:none;" d="M376 260L377 261L376 260z"/>
<path style="fill:#777777; stroke:none;" d="M394 260L395 261L394 260z"/>
<path style="fill:#b2b2b2; stroke:none;" d="M395.667 260.333L396.333 260.667L395.667 260.333z"/>
<path style="fill:#777777; stroke:none;" d="M397 260L398 261L397 260M435.333 260.667L435.667 261.333L435.333 260.667z"/>
<path style="fill:#b2b2b2; stroke:none;" d="M446.333 260.667L446.667 261.333L446.333 260.667M457 260L458 261L457 260z"/>
<path style="fill:#33d4ff; stroke:none;" d="M452 268L453 268C457.056 260.589 468.324 258.66 470.522 269.001C471.318 272.744 468.795 275.974 467 279C484.962 271.952 455.352 246.79 452 268z"/>
<path style="fill:#b2b2b2; stroke:none;" d="M175 261L175 271L176 271L175 261z"/>
<path style="fill:#777777; stroke:none;" d="M217 261L218 262L217 261M293 261L294 262L293 261M364.333 261.667L364.667 262.333L364.333 261.667M376.333 261.667L376.667 262.333L376.333 261.667z"/>
<path style="fill:#b2b2b2; stroke:none;" d="M393 261L394 262L393 261M398 261L399 262L398 261M411 261L411 275L412 275L411 261M416 261L417 262L416 261M144 262L144 273L145 273L144 262z"/>
<path style="fill:#777777; stroke:none;" d="M156 262L156 274L157 274L156 262M181 262L182 263L181 262z"/>
<path style="fill:#b2b2b2; stroke:none;" d="M237 262L237 272L238 272L237 262M269 262L270 263L269 262M131.333 263.667L131.667 264.333L131.333 263.667M181 263L181 268L182 268L181 263z"/>
<path style="fill:#777777; stroke:none;" d="M268 263L269 264L268 263z"/>
<path style="fill:#b2b2b2; stroke:none;" d="M364 263L364 272L365 272L364 263z"/>
<path style="fill:#777777; stroke:none;" d="M399 263L399 269L400 269L399 263M428 263L429 264L428 263M434 263L435 264L434 263z"/>
<path style="fill:#b2b2b2; stroke:none;" d="M483 263L484 264L483 263z"/>
<path style="fill:#777777; stroke:none;" d="M218 264L219 265L218 264M267 264L268 265L267 264M294 264L295 265L294 264z"/>
<path style="fill:#b2b2b2; stroke:none;" d="M345 264L345 269L346 269L345 264z"/>
<path style="fill:#777777; stroke:none;" d="M417 264L418 265L417 264M430 264L430 265L433 265L430 264z"/>
<path style="fill:#b2b2b2; stroke:none;" d="M445 264L446 265L445 264z"/>
<path style="fill:#33d4ff; stroke:none;" d="M459.109 264.758C451.585 267.729 456.226 279.351 463.941 276.392C471.53 273.482 466.769 261.733 459.109 264.758z"/>
<path style="fill:#b2b2b2; stroke:none;" d="M464 264L465 265L464 264z"/>
<path style="fill:#777777; stroke:none;" d="M266 265L267 266L266 265z"/>
<path style="fill:#b2b2b2; stroke:none;" d="M417 265L418 266L417 265M265 266L266 267L265 266M444 266L445 267L444 266M81 267L82 268L81 267z"/>
<path style="fill:#777777; stroke:none;" d="M263 267L264 268L263 267M381 267L381 271L382 271L381 267z"/>
<path style="fill:#b2b2b2; stroke:none;" d="M443 267L444 268L443 267z"/>
<path style="fill:#777777; stroke:none;" d="M181 268L181 276L182 276L181 268M260 268L261 269L260 268z"/>
<path style="fill:#b2b2b2; stroke:none;" d="M261 268L262 269L261 268z"/>
<path style="fill:#777777; stroke:none;" d="M376 268L376 271L377 271L376 268z"/>
<path style="fill:#b2b2b2; stroke:none;" d="M419 268L420 269L419 268M442 268L443 269L442 268M472 268L472 273L473 273L472 268z"/>
<path style="fill:#777777; stroke:none;" d="M250 269L250 270L257 270L250 269z"/>
<path style="fill:#b2b2b2; stroke:none;" d="M257.667 269.333L258.333 269.667L257.667 269.333M393 269L393 277L394 277L393 269z"/>
<path style="fill:#777777; stroke:none;" d="M421 269L422 270L421 269M440 269L441 270L440 269z"/>
<path style="fill:#b2b2b2; stroke:none;" d="M54 270L55 271L54 270z"/>
<path style="fill:#777777; stroke:none;" d="M438 270L439 271L438 270z"/>
<path style="fill:#b2b2b2; stroke:none;" d="M439 270L440 271L439 270z"/>
<path style="fill:#777777; stroke:none;" d="M175 271L175 279L176 279L175 271z"/>
<path style="fill:#b2b2b2; stroke:none;" d="M230 271L230 280L231 280L230 271M306 271L306 280L307 280L306 271M311 271L311 275L312 275L311 271z"/>
<path style="fill:#777777; stroke:none;" d="M324 271L325 272L324 271z"/>
<path style="fill:#b2b2b2; stroke:none;" d="M328 271L329 272L328 271M358 271L359 272L358 271M376 271L377 272L376 271M420 271L421 272L420 271z"/>
<path style="fill:#777777; stroke:none;" d="M427 271L427 272L435 272L427 271z"/>
<path style="fill:#b2b2b2; stroke:none;" d="M435 271L436 272L435 271M475.333 271.667L475.667 272.333L475.333 271.667M199 272L199 279L200 279L199 272z"/>
<path style="fill:#777777; stroke:none;" d="M237 272L237 278L238 278L237 272z"/>
<path style="fill:#b2b2b2; stroke:none;" d="M275 272L275 279L276 279L275 272z"/>
<path style="fill:#777777; stroke:none;" d="M346 272L347 273L346 272M358 272L359 273L358 272M364 272L365 273L364 272M419 272L420 273L419 272z"/>
<path style="fill:#b2b2b2; stroke:none;" d="M427 272L428 273L427 272M71.3333 273.667L71.6667 274.333L71.3333 273.667z"/>
<path style="fill:#777777; stroke:none;" d="M144 273L144 280L145 280L144 273M341.667 273.333L342.333 273.667L341.667 273.333z"/>
<path style="fill:#b2b2b2; stroke:none;" d="M343 273L344 274L343 273M346 273L347 274L346 273M359 273L360 274L359 273z"/>
<path style="fill:#777777; stroke:none;" d="M375 273L376 274L375 273M418 273L419 274L418 273z"/>
<path style="fill:#b2b2b2; stroke:none;" d="M428 273L429 274L428 273M452 273L453 274L452 273M83 274L84 275L83 274z"/>
<path style="fill:#777777; stroke:none;" d="M360 274L360 275L363 275L360 274z"/>
<path style="fill:#b2b2b2; stroke:none;" d="M375 274L376 275L375 274z"/>
<path style="fill:#777777; stroke:none;" d="M417 274L417 277L418 277L417 274M432 274L432 275L435 275L432 274z"/>
<path style="fill:#b2b2b2; stroke:none;" d="M435 274L435 275L438 275L435 274z"/>
<path style="fill:#33d4ff; stroke:none;" d="M452 274L452 287L467 280L467 279C460.184 280.246 457.064 278.521 452 274z"/>
<path style="fill:#b2b2b2; stroke:none;" d="M100 275L101 276L100 275M217 275L217 282L218 282L217 275M293 275L293 282L294 282L293 275z"/>
<path style="fill:#777777; stroke:none;" d="M343.333 275.667L343.667 276.333L343.333 275.667M347 275L348 276L347 275M411 275L411 282L412 282L411 275M440 275L441 276L440 275z"/>
<path style="fill:#b2b2b2; stroke:none;" d="M441 275L442 276L441 275M84 276L84 277L100 277L84 276M132 276L133 277L132 276M250 276L250 282L251 282L250 276M347 276L348 277L347 276M374 276L375 277L374 276M443 276L444 277L443 276M212 277L212 282L213 282L212 277M288 277L288 282L289 282L288 277z"/>
<path style="fill:#777777; stroke:none;" d="M312 277L313 278L312 277z"/>
<path style="fill:#b2b2b2; stroke:none;" d="M329.667 277.333L330.333 277.667L329.667 277.333M343 277L344 278L343 277z"/>
<path style="fill:#777777; stroke:none;" d="M348 277L349 278L348 277M373 277L374 278L373 277M393 277L393 282L394 282L393 277z"/>
<path style="fill:#b2b2b2; stroke:none;" d="M417 277L418 278L417 277z"/>
<path style="fill:#777777; stroke:none;" d="M444 277L445 278L444 277z"/>
<path style="fill:#b2b2b2; stroke:none;" d="M461 277L462 278L461 277M328 278L329 279L328 278z"/>
<path style="fill:#777777; stroke:none;" d="M349 278L350 279L349 278M372 278L373 279L372 278M418 278L419 279L418 278M445 278L446 279L445 278M199 279L199 282L200 282L199 279M275 279L275 282L276 282L275 279z"/>
<path style="fill:#b2b2b2; stroke:none;" d="M313 279L314 280L313 279M327 279L328 280L327 279M331 279L332 280L331 279z"/>
<path style="fill:#777777; stroke:none;" d="M350 279L351 280L350 279M371 279L372 280L371 279z"/>
<path style="fill:#b2b2b2; stroke:none;" d="M380 279L380 282L381 282L380 279M446 279L447 280L446 279M53 280L54 281L53 280z"/>
<path style="fill:#777777; stroke:none;" d="M230.333 280.667L230.667 281.333L230.333 280.667M306.333 280.667L306.667 281.333L306.333 280.667z"/>
<path style="fill:#b2b2b2; stroke:none;" d="M314 280L315 281L314 280z"/>
<path style="fill:#777777; stroke:none;" d="M325 280L326 281L325 280z"/>
<path style="fill:#b2b2b2; stroke:none;" d="M332 280L333 281L332 280z"/>
<path style="fill:#777777; stroke:none;" d="M342 280L343 281L342 280z"/>
<path style="fill:#b2b2b2; stroke:none;" d="M351 280L352 281L351 280M370 280L371 281L370 280M398.333 280.667L398.667 281.333L398.333 280.667z"/>
<path style="fill:#777777; stroke:none;" d="M420 280L421 281L420 280M446 280L447 281L446 280z"/>
<path style="fill:#b2b2b2; stroke:none;" d="M316 281L317 282L316 281z"/>
<path style="fill:#777777; stroke:none;" d="M317 281L318 282L317 281z"/>
<path style="fill:#b2b2b2; stroke:none;" d="M324 281L325 282L324 281M333 281L334 282L333 281M341 281L342 282L341 281M353 281L354 282L353 281z"/>
<path style="fill:#777777; stroke:none;" d="M367 281L368 282L367 281z"/>
<path style="fill:#b2b2b2; stroke:none;" d="M368 281L369 282L368 281M421 281L422 282L421 281M319 282L319 283L323 283L319 282M335 282L336 283L335 282z"/>
<path style="fill:#777777; stroke:none;" d="M336.667 282.333L337.333 282.667L336.667 282.333z"/>
<path style="fill:#b2b2b2; stroke:none;" d="M338.667 282.333L339.333 282.667L338.667 282.333M356 282L357 283L356 282z"/>
<path style="fill:#777777; stroke:none;" d="M357 282L357 283L365 283L357 282z"/>
<path style="fill:#b2b2b2; stroke:none;" d="M365 282L366 283L365 282M420 282L421 283L420 282M451 282L451 285L452 285L451 282z"/>
<path style="fill:#777777; stroke:none;" d="M419 283L420 284L419 283z"/>
<path style="fill:#ffffff; stroke:none;" d="M427 283C427.952 288.482 434.159 289.546 436 284L427 283z"/>
<path style="fill:#b2b2b2; stroke:none;" d="M432.667 283.333L433.333 283.667L432.667 283.333z"/>
<path style="fill:#777777; stroke:none;" d="M434 283L435 284L434 283M418 284L419 285L418 284M426.333 284.667L426.667 285.333L426.333 284.667M417 285L418 286L417 285M436.333 285.667L436.667 286.333L436.333 285.667z"/>
<path style="fill:#b2b2b2; stroke:none;" d="M416.333 286.667L416.667 287.333L416.333 286.667z"/>
<path style="fill:#777777; stroke:none;" d="M446 286L447 287L446 286M427 287L428 288L427 287z"/>
<path style="fill:#b2b2b2; stroke:none;" d="M428 287L429 288L428 287M435 287L436 288L435 287M446 287L447 288L446 287z"/>
<path style="fill:#777777; stroke:none;" d="M430 288L430 289L434 289L430 288M445 288L446 289L445 288M417 289L418 290L417 289z"/>
<path style="fill:#b2b2b2; stroke:none;" d="M444 290L445 291L444 290M418 291L419 292L418 291M443 291L444 292L443 291z"/>
<path style="fill:#777777; stroke:none;" d="M441 292L442 293L441 292z"/>
<path style="fill:#b2b2b2; stroke:none;" d="M421 293L422 294L421 293z"/>
<path style="fill:#777777; stroke:none;" d="M439 293L440 294L439 293z"/>
<path style="fill:#b2b2b2; stroke:none;" d="M424 294L425 295L424 294z"/>
<path style="fill:#777777; stroke:none;" d="M425 294L426 295L425 294M435.667 294.333L436.333 294.667L435.667 294.333z"/>
<path style="fill:#b2b2b2; stroke:none;" d="M437 294L438 295L437 294z"/>
</svg>
