<?xml version="1.0" encoding="UTF-8"?>
<!DOCTYPE svg PUBLIC "-//W3C//DTD SVG 1.1//EN" "http://www.w3.org/Graphics/SVG/1.1/DTD/svg11.dtd">
<svg xmlns="http://www.w3.org/2000/svg" version="1.1" width="500px" height="500px" style="shape-rendering:geometricPrecision; text-rendering:geometricPrecision; image-rendering:optimizeQuality; fill-rule:evenodd; clip-rule:evenodd" xmlns:xlink="http://www.w3.org/1999/xlink">
<g><path style="opacity:1" fill="#fefeff" d="M -0.5,-0.5 C 166.167,-0.5 332.833,-0.5 499.5,-0.5C 499.5,166.167 499.5,332.833 499.5,499.5C 332.833,499.5 166.167,499.5 -0.5,499.5C -0.5,332.833 -0.5,166.167 -0.5,-0.5 Z"/></g>
<g><path style="opacity:1" fill="#30d3ff" d="M 154.5,83.5 C 158.605,83.2338 162.605,83.7338 166.5,85C 202.671,105.92 239.004,126.586 275.5,147C 231.087,162.193 186.42,176.693 141.5,190.5C 141.333,159.165 141.5,127.832 142,96.5C 144.327,90.3406 148.494,86.0073 154.5,83.5 Z"/></g>
<g><path style="opacity:1" fill="#30d3ff" d="M 332.5,179.5 C 366.112,198.309 399.779,217.143 433.5,236C 444.685,243.679 446.351,253.012 438.5,264C 407.5,281.833 376.5,299.667 345.5,317.5C 343.947,312.99 343.114,308.324 343,303.5C 339.423,262.167 335.923,220.834 332.5,179.5 Z"/></g>
<g><path style="opacity:1" fill="#34d3ff" d="M 140.5,316.5 C 141.167,286.5 141.833,256.5 142.5,226.5C 145.454,228.28 148.287,230.28 151,232.5C 181.043,193.49 219.21,182.657 265.5,200C 299.062,217.102 316.729,244.602 318.5,282.5C 317.837,300.49 312.837,317.157 303.5,332.5C 305.269,334.557 307.269,336.39 309.5,338C 260.337,365.747 211.337,393.747 162.5,422C 152.257,423.796 145.09,419.963 141,410.5C 140.5,379.168 140.333,347.835 140.5,316.5 Z"/></g>
<g><path style="opacity:1" fill="#fdfeff" d="M 216.5,203.5 C 255.988,201.318 284.155,217.985 301,253.5C 313.518,294.284 302.351,326.784 267.5,351C 229.238,370.145 195.405,364.312 166,333.5C 146.576,306.774 143.243,278.107 156,247.5C 169.197,223.16 189.363,208.494 216.5,203.5 Z"/></g>
<g><path style="opacity:1" fill="#30d3ff" d="M 218.5,226.5 C 252.852,224.742 274.352,240.408 283,273.5C 285.332,307.481 270.165,328.981 237.5,338C 201.277,340.982 179.111,324.815 171,289.5C 170.416,255.963 186.249,234.963 218.5,226.5 Z"/></g>
<g><path style="opacity:1" fill="#b0eeff" d="M 142.5,226.5 C 141.833,256.5 141.167,286.5 140.5,316.5C 140.167,286.159 140.5,255.826 141.5,225.5C 142.107,225.624 142.44,225.957 142.5,226.5 Z"/></g>
</svg>
